<?xml version="1.0" standalone="no"?>
<!DOCTYPE svg PUBLIC "-//W3C//DTD SVG 20010904//EN"
 "http://www.w3.org/TR/2001/REC-SVG-20010904/DTD/svg10.dtd">
<svg version="1.0" xmlns="http://www.w3.org/2000/svg"
 width="100.000000pt" height="100.000000pt" viewBox="0 0 100.000000 100.000000"
 preserveAspectRatio="xMidYMid meet">

<g transform="translate(0.000000,100.000000) scale(0.100000,-0.100000)"
fill="#000000" stroke="none">
<path d="M120 571 l0 -348 79 -7 c85 -7 211 -37 266 -63 33 -16 37 -16 70 0
55 26 181 56 266 63 l79 7 0 348 0 349 -42 0 c-68 0 -166 -19 -256 -49 l-82
-27 -83 27 c-89 30 -187 49 -254 49 l-43 0 0 -349z m215 283 c33 -9 79 -22
103 -31 l42 -16 0 -308 0 -308 -54 19 c-58 20 -130 35 -213 45 l-53 7 0 310 0
309 58 -6 c31 -4 84 -13 117 -21z m505 -283 l0 -309 -52 -7 c-84 -10 -156 -25
-214 -45 l-54 -19 0 308 0 308 43 16 c76 28 183 52 255 56 l22 1 0 -309z"/>
<path d="M40 482 l0 -339 94 -6 c105 -7 222 -29 309 -58 56 -19 58 -19 115 0
86 29 203 51 308 58 l94 6 0 339 c0 331 0 338 -20 338 -20 0 -20 -7 -20 -319
l0 -319 -72 -7 c-104 -9 -226 -32 -292 -55 -55 -19 -57 -19 -112 0 -66 23
-188 46 -291 55 l-73 7 0 319 c0 312 0 319 -20 319 -20 0 -20 -7 -20 -338z"/>
</g>
</svg>
